PathFileType	4	(X/Y/Z)	C:\InverseKin\data\OA1\Walking\OA1_80_1.trc
DataRate	CameraRate	NumFrames	NumMarkers	Units	OrigDataRate	OrigDataStartFrame	OrigNumFrames
100.00	100.00	       7	42	mm	100.00	219	       291
Frame#	Time	R.Shoulder			R.Clavicle			R.Bicep			R.Elbow			R.Forearm			R.Wrist			L.Shoulder			L.Clavicle			L.Scapula			L.Bicep			L.Elbow			L.Forearm			L.Wrist			R.ASIS			R.Iliac			R.PSIS			S2			L.PSIS			L.Iliac			L.ASIS			R.TH1			R.TH2			R.TH3			R.Knee			R.SH1			R.SH2			R.SH3			R.SH4			R.Ankle			R.Heel			R.MT5			L.TH1			L.TH2			L.TH3			L.TH4			L.Knee			L.SH1			L.SH2			L.SH3			L.Ankle			L.Heel			L.MT5			
		X1	Y1	Z1	X2	Y2	Z2	X3	Y3	Z3	X4	Y4	Z4	X5	Y5	Z5	X6	Y6	Z6	X7	Y7	Z7	X8	Y8	Z8	X9	Y9	Z9	X10	Y10	Z10	X11	Y11	Z11	X12	Y12	Z12	X13	Y13	Z13	X14	Y14	Z14	X15	Y15	Z15	X16	Y16	Z16	X17	Y17	Z17	X18	Y18	Z18	X19	Y19	Z19	X20	Y20	Z20	X21	Y21	Z21	X22	Y22	Z22	X23	Y23	Z23	X24	Y24	Z24	X25	Y25	Z25	X26	Y26	Z26	X27	Y27	Z27	X28	Y28	Z28	X29	Y29	Z29	X30	Y30	Z30	X31	Y31	Z31	X32	Y32	Z32	X33	Y33	Z33	X34	Y34	Z34	X35	Y35	Z35	X36	Y36	Z36	X37	Y37	Z37	X38	Y38	Z38	X39	Y39	Z39	X40	Y40	Z40	X41	Y41	Z41	X42	Y42	Z42	

219	2.180	755.81708	13.70345	1381.75964	798.83966	180.18349	1345.90588	785.06177	0.46605	1244.83606	718.52509	-85.56429	1080.31934	793.76251	-63.55846	984.45227	811.62433	-100.46158	861.01807	745.62878	401.85168	1384.60107	803.18304	235.35591	1352.00232	597.51440	314.69003	1315.07141	792.24872	403.88358	1145.20374	730.61725	456.71237	1070.04578	837.96912	406.28091	951.05530	866.74860	438.32358	866.72003	828.81763	70.53916	1001.35223	698.01904	31.02051	1079.20410	585.73370	127.64522	1025.52808	577.70068	184.15204	1004.39209	590.79376	244.16069	1022.19824	702.35181	365.44940	1044.01599	822.02570	317.07669	976.50201	860.72272	73.84131	752.31836	871.10449	85.26067	676.03729	746.22321	14.40600	648.97424	795.09790	47.63097	501.72073	851.27118	134.12369	345.88620	842.25385	140.81711	274.14288	780.86188	45.50175	348.38095	764.98828	54.63898	276.96344	768.01569	101.41112	94.94991	690.59436	161.77238	43.69645	873.72083	69.83522	35.79636	849.98663	332.98080	770.67828	865.02582	322.16595	691.17999	711.41199	371.64474	738.95300	725.83380	356.97867	657.00714	786.23157	344.69287	500.10721	733.16016	332.41089	366.52377	680.33105	321.05045	313.00449	598.19672	323.31818	390.08652	496.07339	313.07556	237.90587	420.05423	246.73526	242.07556	512.22632	365.08853	116.06858	
220	2.190	767.12262	13.80966	1383.76538	808.93274	180.18553	1347.48584	798.64484	1.82034	1246.72632	738.33118	-86.77383	1081.95544	815.62860	-63.20397	987.86603	838.18060	-100.63282	865.38550	754.71271	401.02487	1385.85901	812.94763	234.96666	1353.52747	606.61279	313.10114	1316.63330	797.53644	404.03342	1145.51599	734.38312	455.49237	1070.92639	839.69757	406.92786	949.76465	865.16943	438.62402	864.50360	834.51227	68.98902	1001.04034	706.97290	29.97473	1080.63965	594.49896	126.72822	1026.63037	587.28223	183.32013	1005.61395	600.20520	242.60889	1022.75745	713.26489	364.49609	1045.12402	831.42712	316.37036	977.73676	867.55280	73.13776	751.52405	877.01648	84.79294	674.72961	751.90198	13.81174	649.32202	798.29346	47.89431	501.01614	853.42206	133.97638	344.98981	843.62885	140.35585	273.15683	782.64709	45.81388	348.25961	766.14368	54.69152	277.20505	768.21027	101.38873	95.04878	690.70825	161.92117	44.02504	873.72083	69.83522	35.79636	862.38849	332.62415	774.49933	880.93719	321.63153	695.61151	725.42725	371.56726	741.73578	741.65082	357.63916	657.74658	805.18781	344.31055	502.83600	756.12598	331.56827	368.19528	704.57220	320.00998	312.57590	619.74182	321.59326	388.00812	522.91748	311.61868	232.15681	445.88989	244.88011	231.33035	545.76111	364.91705	113.06220	
221	2.200	778.56042	13.72352	1385.38147	818.05157	180.11501	1348.22156	813.36237	2.35882	1249.42834	757.92041	-87.87765	1083.50610	838.39154	-62.40977	991.88165	864.41046	-99.42565	869.88867	762.56543	401.23679	1386.53931	822.51837	234.97214	1353.86255	615.93414	310.98450	1317.38892	803.00372	403.89276	1145.64539	737.34979	454.76309	1072.38757	840.42847	406.98184	948.27747	864.26514	438.84558	862.66156	843.73248	68.17271	1001.29718	715.59357	28.43062	1080.79578	603.87604	125.99526	1027.48804	596.15570	183.23029	1006.47607	609.94659	241.72000	1023.76154	722.25421	362.80969	1045.40942	840.78510	315.42557	979.71381	874.05249	72.99747	750.15930	882.08789	84.04280	673.54077	757.40973	14.02472	649.45270	801.17194	47.92642	501.17105	855.57831	133.75337	344.83298	845.30634	139.79820	272.09631	784.14471	45.51126	348.32803	767.93677	54.94221	277.61694	769.09418	101.30604	95.59246	690.51746	162.04855	43.47966	873.83691	69.92280	35.88923	875.88867	329.94733	779.11053	895.75293	319.37296	700.64648	739.37561	371.53207	743.00391	757.17816	358.85266	659.96198	824.11438	343.85272	505.75418	778.58923	331.48438	369.31622	728.53180	319.93637	312.54712	641.80060	320.49622	385.03079	550.75714	310.60291	225.34485	473.11646	245.12785	220.05608	579.18921	364.60852	107.69152	
222	2.210	789.90704	14.04628	1387.42615	828.21484	180.52794	1349.19446	827.89270	3.45938	1252.27173	778.44818	-88.57307	1085.25232	860.00421	-61.86319	995.63434	890.79388	-98.55457	874.90381	770.82294	400.39334	1387.08777	831.19397	234.76143	1354.91028	625.07587	309.74103	1318.68030	807.95715	403.50476	1145.54761	741.12323	453.85114	1073.50916	841.08679	407.31812	946.94855	862.68927	439.91998	861.11316	853.09833	67.39217	1002.73798	725.53497	27.77679	1081.07532	613.17261	125.04133	1028.67700	605.51196	181.87540	1006.88959	618.79352	241.45497	1024.73376	728.89844	361.00613	1047.19897	850.05084	314.38199	980.92847	880.45978	72.66119	748.71857	887.57788	84.72260	672.26031	762.23352	13.71217	650.24750	803.94604	47.67616	501.16000	857.33063	133.45053	343.68167	846.53699	140.17754	272.22748	785.92719	46.08891	347.91257	769.28278	55.04585	277.19614	769.14020	101.51299	96.07371	690.67487	161.92712	43.56964	873.70703	69.98052	36.03495	888.59906	328.54468	783.45941	909.63068	318.43118	704.98083	752.56293	372.35617	744.74908	771.75067	359.78439	662.12256	842.04578	343.23495	508.49542	801.18951	331.19058	370.71268	752.75482	320.25107	312.15384	663.77631	319.59149	381.99506	579.33508	310.44431	217.70978	500.35980	245.05850	208.33151	613.93347	364.49689	102.25719	
223	2.220	801.13293	13.76673	1388.73535	838.50562	180.34972	1350.35522	841.90601	4.51937	1254.21729	798.23615	-89.36226	1086.75000	880.93787	-61.75398	999.94171	916.87347	-96.66503	880.14679	778.93964	399.97122	1387.89539	841.12256	234.91414	1355.19592	634.13416	308.50641	1319.34717	813.48096	402.82059	1145.30151	744.13379	453.14532	1074.68677	841.29858	407.92032	945.80951	860.53394	440.39792	858.82745	862.46985	65.78387	1002.32697	734.22931	26.06789	1082.26318	622.15485	123.99198	1029.48694	615.21405	181.06383	1008.01331	628.31580	240.27690	1025.81970	736.12848	359.22153	1048.35400	858.81818	313.33954	981.42535	886.49841	73.35373	748.08978	893.05328	85.58195	671.07397	767.82593	13.74326	649.95111	806.82385	47.49073	501.11316	859.21344	133.71973	343.30188	848.41840	139.80510	271.72144	788.54987	46.32540	348.03378	770.18982	55.28782	276.80679	769.88879	101.68938	95.99081	690.97998	162.80440	43.59277	873.78308	70.09433	36.19578	900.18817	326.75839	786.76550	923.12390	316.81104	709.22192	766.60748	372.80267	746.32361	786.85162	360.25085	664.35651	859.98621	342.49875	511.31201	823.52191	331.16513	372.25244	777.78259	319.99493	312.01471	686.28217	319.19482	378.04150	608.24554	310.36871	209.25433	529.70654	246.23683	195.77139	650.43335	363.40649	95.64830	
224	2.230	812.73651	13.39973	1389.83105	848.00366	180.04214	1351.04968	856.44543	5.22568	1256.41809	818.18231	-90.33339	1088.49561	902.86768	-60.99117	1003.97742	942.55048	-94.94651	885.49646	786.82574	400.05161	1388.04639	850.21777	234.66646	1356.21460	642.64117	306.61951	1320.20837	818.22894	402.14099	1145.15601	746.81482	451.74680	1075.38831	842.23743	408.68884	944.66168	859.18115	441.37918	857.51288	871.46820	65.02615	1002.13446	744.85590	25.69337	1082.22595	631.94391	123.51747	1029.84644	623.64380	180.40285	1008.94550	637.17413	238.92497	1025.77722	743.78210	356.97879	1049.33020	868.51703	311.36975	983.14209	893.07556	72.96594	747.10278	898.50342	85.82755	670.06708	773.50269	13.75721	650.21844	810.13831	47.81613	500.69067	861.36432	133.74663	342.46924	849.04272	140.22542	270.93051	790.27722	46.17807	347.79126	771.60187	55.38204	277.06519	769.86639	101.66285	95.75840	691.33337	162.98097	43.30851	873.78308	70.09433	36.19578	911.99860	325.52383	789.71973	936.64471	315.78934	713.11731	779.95203	372.56677	748.42725	800.64264	360.85385	665.45129	877.23151	341.53122	514.27271	845.84900	330.60895	373.26767	802.92926	319.61334	311.18951	708.14697	317.09836	373.75180	638.59381	310.92010	200.41460	559.21716	247.32964	182.72928	685.92657	363.03763	88.62344	
225	2.240	824.16223	13.45989	1390.52979	857.67755	180.14854	1351.47144	869.96405	6.32309	1258.83508	837.61194	-90.74234	1090.37573	923.73682	-60.03638	1007.91644	967.74158	-93.78701	891.08862	794.38879	399.60959	1388.73730	859.66437	234.74101	1356.98572	651.66754	304.49503	1320.36572	823.25775	401.38095	1144.75073	750.08783	451.76651	1076.48364	842.98065	408.76410	943.64624	857.34344	441.87082	855.78809	880.46234	64.29236	1001.78693	752.61127	24.88331	1082.39819	641.63611	122.95518	1030.54126	632.80658	179.96082	1008.95819	646.64050	237.69701	1026.51343	753.47778	356.64688	1049.89258	877.56982	311.71582	983.67542	900.22107	73.58076	746.52545	904.63861	86.82781	669.25494	778.28345	13.56358	650.62500	813.84259	48.24987	500.42419	863.08740	134.40099	341.73279	850.64252	140.61475	270.79956	791.77954	46.31249	347.79340	773.03729	55.30190	276.93161	770.33551	102.01361	95.95834	691.33337	162.98097	43.30851	873.78308	70.09433	36.19578	924.39362	323.33005	793.93994	949.18024	313.77139	717.00342	792.39661	373.48471	749.46991	816.01031	361.33728	667.16064	894.09271	340.79999	516.53955	868.34119	330.12436	373.74149	828.14136	319.29932	310.16879	731.06244	317.51666	367.96411	669.09381	311.91476	191.12811	591.20740	248.69038	169.84505	723.32684	362.90396	81.96349	
